<svg width="189" height="266" viewBox="0 0 189 266" fill="none" xmlns="http://www.w3.org/2000/svg">
<path d="M55 4.66026C64.282 -0.698726 75.718 -0.69873 85 4.66025L173.645 55.8397C182.928 61.1987 188.645 71.1025 188.645 81.8205V184.179C188.645 194.897 182.928 204.801 173.645 210.16L85 261.34C75.718 266.699 64.282 266.699 55 261.34L-33.6455 210.16C-42.9275 204.801 -48.6455 194.897 -48.6455 184.179V81.8205C-48.6455 71.1025 -42.9275 61.1987 -33.6455 55.8397L55 4.66026Z" fill="#FDEF07"/>
<path d="M55 4.66026C64.282 -0.698726 75.718 -0.69873 85 4.66025L173.645 55.8397C182.928 61.1987 188.645 71.1025 188.645 81.8205V184.179C188.645 194.897 182.928 204.801 173.645 210.16L85 261.34C75.718 266.699 64.282 266.699 55 261.34L-33.6455 210.16C-42.9275 204.801 -48.6455 194.897 -48.6455 184.179V81.8205C-48.6455 71.1025 -42.9275 61.1987 -33.6455 55.8397L55 4.66026Z" fill="url(#paint0_radial_111_14)"/>
<defs>
<radialGradient id="paint0_radial_111_14" cx="0" cy="0" r="1" gradientUnits="userSpaceOnUse" gradientTransform="translate(70 133) rotate(90) scale(137)">
<stop stop-color="#FFF658"/>
<stop offset="0.883946" stop-color="#FDEF07" stop-opacity="0.79"/>
</radialGradient>
</defs>
</svg>
