<svg width="215" height="274" viewBox="0 0 215 274" fill="none" xmlns="http://www.w3.org/2000/svg">
<g filter="url(#filter0_d_111_31)">
<path d="M108 4.66026C117.282 -0.698726 128.718 -0.69873 138 4.66025L226.645 55.8397C235.928 61.1987 241.645 71.1025 241.645 81.8205V184.179C241.645 194.897 235.928 204.801 226.645 210.16L138 261.34C128.718 266.699 117.282 266.699 108 261.34L19.3545 210.16C10.0725 204.801 4.35452 194.897 4.35452 184.179V81.8205C4.35452 71.1025 10.0725 61.1987 19.3545 55.8397L108 4.66026Z" fill="#FDEF07"/>
<path d="M108 4.66026C117.282 -0.698726 128.718 -0.69873 138 4.66025L226.645 55.8397C235.928 61.1987 241.645 71.1025 241.645 81.8205V184.179C241.645 194.897 235.928 204.801 226.645 210.16L138 261.34C128.718 266.699 117.282 266.699 108 261.34L19.3545 210.16C10.0725 204.801 4.35452 194.897 4.35452 184.179V81.8205C4.35452 71.1025 10.0725 61.1987 19.3545 55.8397L108 4.66026Z" fill="url(#paint0_radial_111_31)" fill-opacity="0.35"/>
</g>
<defs>
<filter id="filter0_d_111_31" x="0.354492" y="0.640991" width="245.291" height="272.718" filterUnits="userSpaceOnUse" color-interpolation-filters="sRGB">
<feFlood flood-opacity="0" result="BackgroundImageFix"/>
<feColorMatrix in="SourceAlpha" type="matrix" values="0 0 0 0 0 0 0 0 0 0 0 0 0 0 0 0 0 0 127 0" result="hardAlpha"/>
<feOffset dy="4"/>
<feGaussianBlur stdDeviation="2"/>
<feComposite in2="hardAlpha" operator="out"/>
<feColorMatrix type="matrix" values="0 0 0 0 0 0 0 0 0 0 0 0 0 0 0 0 0 0 0.25 0"/>
<feBlend mode="normal" in2="BackgroundImageFix" result="effect1_dropShadow_111_31"/>
<feBlend mode="normal" in="SourceGraphic" in2="effect1_dropShadow_111_31" result="shape"/>
</filter>
<radialGradient id="paint0_radial_111_31" cx="0" cy="0" r="1" gradientUnits="userSpaceOnUse" gradientTransform="translate(123 133) rotate(90) scale(137)">
<stop offset="0.252675" stop-color="#FAEF37"/>
<stop offset="0.772739" stop-color="#FFF658" stop-opacity="0.75"/>
</radialGradient>
</defs>
</svg>
